Coordinates
version=1
nRows=29
nColumns=24
inDegrees=yes

Units are S.I. units (second, meters, Newtons, ...)
Angles are in degrees.

endheader
time	pelvis_tilt	pelvis_list	pelvis_rotation	pelvis_tx	pelvis_ty	pelvis_tz	hip_flexion_r	hip_adduction_r	hip_rotation_r	knee_angle_r	ankle_angle_r	subtalar_angle_r	mtp_angle_r	hip_flexion_l	hip_adduction_l	hip_rotation_l	knee_angle_l	ankle_angle_l	subtalar_angle_l	mtp_angle_l	lumbar_extension	lumbar_bending	lumbar_rotation
      4.53500000	    -14.23222402	     10.33566108	    -10.90989578	      0.66038283	     -0.02443111	      0.02373667	     20.05502416	    -14.04199519	     -0.99899519	    -57.70329801	    -30.01735148	     16.61913982	     39.18701882	     30.28821996	      8.09952034	    -14.03916084	    -18.50001046	     -6.41912577	      1.42206504	      8.64877675	     14.77411436	    -12.41295363	      8.06618830
      4.54000000	    -14.07616725	     10.21027841	    -10.77021687	      0.66667677	     -0.02330262	      0.02333191	     20.58572887	    -13.93378373	     -0.89949151	    -58.62204704	    -28.83205401	     16.03078184	     38.84623165	     29.52250471	      8.25915573	    -13.76374081	    -18.15564677	     -6.15466364	      1.45999963	      8.61511314	     14.62416254	    -12.31803414	      7.71626121
      4.54500000	    -13.97520491	     10.12799460	    -10.60325788	      0.67292843	     -0.02231097	      0.02285495	     21.18540371	    -13.88470244	     -0.81508766	    -59.47767371	    -27.71489909	     15.63168597	     38.90968062	     28.83427823	      8.44923103	    -13.50530243	    -17.82332650	     -5.90994566	      1.55400586	      8.65220574	     14.53414956	    -12.25729927	      7.39071125
      4.55000000	    -13.82475618	      9.94685030	    -10.41271567	      0.67916462	     -0.02113924	      0.02237344	     21.67052292	    -13.73431548	     -0.79718101	    -60.23016683	    -26.67849098	     15.22999956	     38.69247914	     28.05969878	      8.57059984	    -13.12454290	    -17.47811029	     -5.67154885	      1.58556849	      8.53468335	     14.35853134	    -12.11474990	      6.96035544
      4.55500000	    -13.73196603	      9.81709728	    -10.23499422	      0.68536974	     -0.02010441	      0.02191860	     22.24194651	    -13.62403942	     -0.74402139	    -60.92946431	    -25.71377229	     14.97984573	     38.77424181	     27.35964775	      8.70433383	    -12.82065949	    -17.12904983	     -5.45106314	      1.68769351	      8.52698581	     14.26679183	    -12.00852138	      6.60169073
      4.56000000	    -13.61901796	      9.61837363	    -10.02289978	      0.69156733	     -0.01900654	      0.02141550	     22.73690899	    -13.45584262	     -0.76198274	    -61.52803662	    -24.82799865	     14.77901341	     38.87335118	     26.62124925	      8.79036727	    -12.43760077	    -16.78176576	     -5.22283349	      1.75144761	      8.46243703	     14.13053641	    -11.84256276	      6.18285430
      4.56500000	    -13.53954966	      9.42210774	     -9.84336239	      0.69773147	     -0.01798553	      0.02094135	     23.27522782	    -13.26381088	     -0.73875491	    -62.06875434	    -23.98392788	     14.67981011	     39.06155392	     25.92381014	      8.84563009	    -12.11622921	    -16.43668196	     -4.99231025	      1.81506329	      8.44782551	     14.04120084	    -11.65635997	      5.85412417
      4.57000000	    -13.41960324	      9.18048359	     -9.58424707	      0.70390061	     -0.01685723	      0.02041161	     23.70403299	    -13.05767700	     -0.80682739	    -62.49929964	    -23.23697985	     14.64640509	     39.33787870	     25.16078660	      8.89497726	    -11.65728373	    -16.07744328	     -4.79351293	      1.89386721	      8.34646528	     13.88042537	    -11.46579688	      5.35113534
      4.57500000	    -13.31643102	      8.94067099	     -9.36045008	      0.71003125	     -0.01579441	      0.01990563	     24.15766910	    -12.83279076	     -0.84371474	    -62.87300010	    -22.51981633	     14.66365530	     39.70374127	     24.41929921	      8.91899382	    -11.24808267	    -15.71649840	     -4.58283060	      1.95342018	      8.25403927	     13.74882140	    -11.25545425	      4.93609363
      4.58000000	    -13.22704558	      8.69722273	     -9.12927964	      0.71613176	     -0.01476893	      0.01940428	     24.61371538	    -12.59765960	     -0.88661466	    -63.18232790	    -21.83552636	     14.71906072	     40.12530434	     23.69248503	      8.92837150	    -10.84991410	    -15.35125067	     -4.38360987	      2.02774690	      8.17926283	     13.62971289	    -11.04016900	      4.51873856
      4.58500000	    -13.13926585	      8.44354052	     -8.89117243	      0.72220761	     -0.01376940	      0.01889966	     25.05497179	    -12.35262117	     -0.94589768	    -63.42559599	    -21.17509513	     14.80897160	     40.59593006	     22.96621315	      8.92099357	    -10.44610091	    -14.98345078	     -4.19042732	      2.10117477	      8.10916274	     13.51037440	    -10.81518028	      4.09854995
      4.59000000	    -13.05777989	      8.18783087	     -8.65216654	      0.72825497	     -0.01281027	      0.01840121	     25.49326171	    -12.10283652	     -1.01323269	    -63.61043364	    -20.52745830	     14.92161787	     41.07754448	     22.24778020	      8.90084870	    -10.05083531	    -14.61254413	     -4.00418096	      2.17892354	      8.05022055	     13.39862682	    -10.58641288	      3.68826244
      4.59500000	    -12.97856899	      7.92795541	     -8.41025162	      0.73427894	     -0.01188706	      0.01790047	     25.92244838	    -11.84860095	     -1.09184256	    -63.73694737	    -19.88760197	     15.04610473	     41.56085881	     21.53362201	      8.86802205	     -9.66050600	    -14.24128181	     -3.82594151	      2.25962034	      7.99842137	     13.28921642	    -10.35354004	      3.27824943
      4.60000000	    -12.90203293	      7.66620163	     -8.16459324	      0.74027096	     -0.01100690	      0.01739166	     26.34436692	    -11.59485726	     -1.18404570	    -63.80820564	    -19.25403192	     15.17695981	     42.02871197	     20.82653982	      8.82522941	     -9.27889390	    -13.87117351	     -3.65113809	      2.34338434	      7.95809029	     13.18205060	    -10.11465850	      2.87346455
      4.60500000	    -12.77111342	      7.40393317	     -7.92084683	      0.74625262	     -0.01010427	      0.01687185	     26.69108227	    -11.35870625	     -1.31768595	    -63.80401807	    -18.64898582	     15.15290465	     42.72634614	     20.05478663	      8.78985566	     -8.86573367	    -13.48791282	     -3.48648110	      2.36840194	      7.84861117	     13.01751887	     -9.88520347	      2.48708484
      4.61000000	    -12.76296532	      7.14909253	     -7.68959129	      0.75215999	     -0.00939861	      0.01639174	     27.18707364	    -11.08543427	     -1.37949236	    -63.79003816	    -17.99876101	     15.37735209	     43.00584110	     19.44455089	      8.71156974	     -8.55766057	    -13.13893854	     -3.31329761	      2.50866513	      7.88796437	     12.98884195	     -9.63821163	      2.12008768
      4.61500000	    -12.65026554	      6.87543599	     -7.41412088	      0.75808229	     -0.00860371	      0.01582948	     27.52625262	    -10.84994790	     -1.55366007	    -63.69286106	    -17.36571163	     15.41247009	     43.40458684	     18.70683399	      8.65104759	     -8.15503217	    -12.77078234	     -3.15796815	      2.56664469	      7.85786483	     12.83654730	     -9.39681129	      1.70264147
      4.62000000	    -12.63075973	      6.61204521	     -7.16990126	      0.76394885	     -0.00796698	      0.01530651	     27.98280914	    -10.58297208	     -1.65447846	    -63.56673541	    -16.72899410	     15.58132382	     43.62172346	     18.09068018	      8.55916944	     -7.83035820	    -12.42541065	     -2.99146123	      2.68276456	      7.88654056	     12.79363627	     -9.14078049	      1.33363469
      4.62500000	    -12.57273224	      6.33963388	     -6.89743866	      0.76979394	     -0.00732937	      0.01474464	     28.37367121	    -10.33574551	     -1.81939694	    -63.38390631	    -16.09116226	     15.65434103	     43.79767739	     17.43444774	      8.46886005	     -7.46219693	    -12.08200526	     -2.83006831	      2.77047972	      7.89393298	     12.70331691	     -8.88728089	      0.93924397
      4.63000000	    -12.51047176	      6.07119019	     -6.63184961	      0.77560852	     -0.00673574	      0.01417546	     28.75514221	    -10.09211010	     -1.98437897	    -63.15341651	    -15.46016126	     15.69018076	     43.91656301	     16.77999929	      8.37537628	     -7.09426739	    -11.74300113	     -2.66948776	      2.83438068	      7.88307195	     12.60928615	     -8.63274862	      0.56031739
      4.63500000	    -12.45410528	      5.80755440	     -6.36831077	      0.78138769	     -0.00619729	      0.01360261	     29.13704684	     -9.85457033	     -2.15602652	    -62.87749027	    -14.83216206	     15.69150925	     43.96079602	     16.14079952	      8.27791737	     -6.72598971	    -11.41335894	     -2.50673392	      2.88896739	      7.85858280	     12.52105617	     -8.38144518	      0.19142432
      4.64000000	    -12.39934245	      5.54353918	     -6.09608803	      0.78713423	     -0.00570872	      0.01300431	     29.51115655	     -9.62248829	     -2.34002264	    -62.55725048	    -14.21419382	     15.65632647	     43.91645665	     15.51297763	      8.17570067	     -6.34930851	    -11.09586142	     -2.34081429	      2.93582884	      7.81756025	     12.43431632	     -8.12623626	     -0.17607146
      4.64500000	    -12.34729335	      5.28562178	     -5.82543750	      0.79284909	     -0.00527101	      0.01241457	     29.88063381	     -9.39841099	     -2.53325744	    -62.19309358	    -13.59986838	     15.57769245	     43.77321579	     14.89680098	      8.07074122	     -5.96959697	    -10.78830709	     -2.17041488	      2.97538205	      7.75966486	     12.35090318	     -7.87666027	     -0.53847012
      4.65000000	    -12.29550200	      5.03340207	     -5.55194262	      0.79853326	     -0.00488420	      0.01181139	     30.24286608	     -9.18481048	     -2.73601577	    -61.78806234	    -12.99440802	     15.45277017	     43.51964896	     14.29188021	      7.96531573	     -5.58686534	    -10.49498680	     -1.99484913	      3.01058408	      7.68707882	     12.26752184	     -7.62959034	     -0.89702688
      4.65500000	    -12.17769955	      4.82926456	     -5.27766322	      0.80418341	     -0.00452409	      0.01120451	     30.53761118	     -9.04010840	     -2.94020221	    -61.37733501	    -12.32233655	     15.37941322	     42.86275548	     13.61996944	      7.91643135	     -5.18250712	    -10.20063153	     -1.81182596	      3.00461400	      7.50164926	     12.11438351	     -7.44022901	     -1.23869876
      4.66000000	    -12.18287261	      4.59171544	     -5.02306442	      0.80976490	     -0.00430264	      0.01066956	     30.95953469	     -8.81725090	     -3.12458068	    -60.89487344	    -11.76928662	     15.11932837	     42.47541649	     13.11170641	      7.79279708	     -4.86205545	     -9.94932544	     -1.62407919	      3.06972544	      7.47488685	     12.09087724	     -7.20061724	     -1.60003419
      4.66500000	    -12.17285896	      4.35759075	     -4.77523149	      0.81539446	     -0.00409168	      0.01012983	     31.34395134	     -8.60938624	     -3.33101436	    -60.35223615	    -11.25576634	     14.80902817	     42.07248308	     12.57731439	      7.66822491	     -4.52181504	     -9.68133371	     -1.45155684	      3.12723444	      7.44245715	     12.06274339	     -6.95614127	     -1.87724851
      4.67000000	    -12.04172473	      4.16981349	     -4.49214245	      0.82096286	     -0.00386164	      0.00953429	     31.58803338	     -8.49550034	     -3.56103512	    -59.81194936	    -10.63409447	     14.66514593	     41.08746741	     11.92215197	      7.61220410	     -4.13903490	     -9.42439623	     -1.26282751	      3.16726817	      7.32242038	     11.88783632	     -6.78428698	     -2.22386640
      4.67500000	    -12.09001948	      3.98837770	     -4.30979182	      0.82650645	     -0.00385060	      0.00912459	     32.05300005	     -8.29169803	     -3.69678325	    -59.20004936	    -10.21079123	     14.15036547	     40.75395892	     11.48508258	      7.50674108	     -3.89560703	     -9.19132231	     -1.08674679	      3.21349111	      7.33972293	     11.93740088	     -6.57233929	     -2.43542990
